<svg width="1139" height="46" fill="none" xmlns="http://www.w3.org/2000/svg"><path d="M29.18 27.575a19.229 19.229 0 01-1.902 3.42c-1 1.427-1.82 2.414-2.451 2.962-.978.9-2.027 1.36-3.15 1.387-.805 0-1.777-.23-2.909-.695-1.135-.463-2.178-.692-3.132-.692-1 0-2.073.23-3.22.692-1.15.466-2.076.708-2.784.732-1.076.046-2.15-.428-3.22-1.424-.684-.596-1.539-1.619-2.563-3.067-1.1-1.546-2.003-3.34-2.71-5.384C.38 23.298 0 21.16 0 19.09c0-2.371.512-4.417 1.539-6.13A9.026 9.026 0 014.76 9.7a8.67 8.67 0 014.357-1.23c.855 0 1.977.265 3.37.785 1.39.521 2.282.786 2.673.786.293 0 1.284-.31 2.964-.926 1.589-.572 2.93-.809 4.029-.715 2.977.24 5.213 1.413 6.7 3.528-2.662 1.613-3.979 3.872-3.953 6.77.024 2.258.843 4.137 2.453 5.63a8.057 8.057 0 002.45 1.607c-.196.57-.403 1.116-.624 1.64zM22.352.708c0 1.77-.646 3.422-1.935 4.951-1.555 1.818-3.436 2.869-5.476 2.703a5.508 5.508 0 01-.04-.67c0-1.7.739-3.517 2.052-5.004.656-.753 1.49-1.378 2.501-1.878C20.464.32 21.418.047 22.315 0c.026.237.037.473.037.708zM160.722 29.394V3h-5.665v31.275c4.445.222 8.977.44 13.291.662V29.84c-2.528-.223-5.099-.336-7.626-.445zM109.389 8.098V3H96.067v32.713c4.436-.331 8.872-.663 13.322-.998v-5.099c-2.571.11-5.116.332-7.665.554v-8.206h6.662v-5.211h-6.662V8.098h7.665zM77.325 37.731V18.19l6.654 18.742c1.996-.218 3.992-.44 6.1-.662V3h-5.433v20.185L77.547 3H72v35.384l5.325-.654zm42.696-3.456c1.874-.114 3.748-.114 5.665-.222V8.098h5.186V3h-16.08v5.098h5.229v26.177zm17.387-.336h4.445V21.965h6.754v-5.212h-6.754V8.098h7.757V3h-13.291v30.94h1.089zm41.921 1.887V3h-5.534v32.273c1.786.222 3.66.33 5.534.553zm4.227.331c1.786.223 3.66.336 5.447.558l3.965-9.87L196.89 37.6c1.874.348 3.879.566 5.839.784l-6.754-18.973L202.729 3h-5.752l-3.66 8.981L190.223 3h-5.665l5.883 16.302-6.885 16.855zM410.737 19.009v-2.917h-3.621V11.56l-.121.039-3.4 1.036h-.065v3.431h-5.366V14.15c0-.88.207-1.567.596-2.02.388-.454.958-.68 1.657-.68.518 0 1.062.13 1.58.362l.13.052V8.807l-.052-.026c-.492-.175-1.166-.266-1.994-.266-1.049 0-2.008.233-2.849.692a4.68 4.68 0 00-1.956 1.93c-.466.828-.699 1.787-.699 2.835v2.098h-2.512v2.914h2.525V31.26h3.613V18.984h5.37v7.796c0 3.211 1.51 4.843 4.507 4.843.492 0 1.01-.062 1.528-.168.537-.117.906-.233 1.114-.35l.051-.026v-2.94l-.146.099c-.194.13-.44.242-.725.32-.285.078-.531.13-.715.13-.699 0-1.217-.182-1.536-.554-.329-.369-.492-1.023-.492-1.942v-7.174h3.6l-.008-.018-.014.009zm-26.793 9.686c-1.312 0-2.348-.436-3.082-1.295-.729-.861-1.101-2.09-1.101-3.652 0-1.61.372-2.875 1.105-3.75.73-.87 1.756-1.313 3.051-1.313 1.256 0 2.24.422 2.965 1.256.725.84 1.088 2.09 1.088 3.72 0 1.649-.337 2.917-1.01 3.764-.674.841-1.684 1.269-3.004 1.269l-.012.001zm.167-12.968c-2.499 0-4.491.733-5.91 2.18-1.412 1.451-2.135 3.453-2.135 5.958 0 2.383.7 4.293 2.089 5.685 1.386 1.398 3.273 2.123 5.604 2.123 2.424 0 4.377-.75 5.791-2.207 1.424-1.466 2.131-3.453 2.131-5.896 0-2.417-.673-4.346-2.007-5.724-1.334-1.391-3.204-2.093-5.568-2.093l.005-.026zm-13.887.026c-1.71 0-3.114.435-4.196 1.295-1.078.865-1.632 1.994-1.632 3.367 0 .717.122 1.347.358 1.89.233.537.595 1.01 1.08 1.41.479.388 1.217.802 2.201 1.227.829.337 1.437.622 1.831.855.389.216.663.44.803.656.155.208.233.506.233.855 0 1.028-.761 1.523-2.331 1.523-.585 0-1.251-.122-1.979-.363a7.32 7.32 0 01-2.029-1.025l-.155-.104v3.47l.052.027c.518.233 1.156.44 1.916.595a9.56 9.56 0 002.046.246c1.852 0 3.341-.44 4.429-1.3 1.088-.87 1.645-2.033 1.645-3.45 0-1.023-.298-1.903-.887-2.609-.583-.707-1.593-1.352-3.009-1.922-1.117-.453-1.839-.829-2.149-1.113-.285-.28-.419-.674-.419-1.171 0-.44.182-.795.551-1.08.37-.291.888-.436 1.536-.436.602 0 1.217.09 1.838.278.609.192 1.147.44 1.593.746l.152.103v-3.315l-.052-.026c-.421-.18-.967-.333-1.632-.453a9.615 9.615 0 00-1.78-.181l-.014.005zm-15.267 12.958c-1.308 0-2.344-.433-3.069-1.295-.738-.855-1.107-2.085-1.107-3.652 0-1.606.37-2.875 1.106-3.747.725-.87 1.753-1.313 3.043-1.313 1.256 0 2.253.422 2.972 1.256.715.842 1.088 2.093 1.088 3.722 0 1.647-.35 2.914-1.023 3.762-.661.842-1.671 1.27-3.005 1.27l-.005-.003zm.186-12.96c-2.512 0-4.506.73-5.918 2.178-1.42 1.45-2.136 3.45-2.136 5.957 0 2.382.699 4.291 2.076 5.684 1.388 1.399 3.271 2.124 5.6 2.124 2.435 0 4.377-.75 5.802-2.214 1.417-1.469 2.137-3.455 2.137-5.899 0-2.418-.674-4.347-1.995-5.724-1.334-1.392-3.206-2.094-5.568-2.094l.002-.013zm-13.519 3.001V16.11h-3.574V31.3h3.574v-7.77c0-1.32.298-2.408.889-3.23.583-.819 1.36-1.218 2.306-1.218.323 0 .686.052 1.085.156.388.103.668.207.829.337l.155.103v-3.6l-.057-.026c-.337-.15-.803-.223-1.399-.223-.893 0-1.696.29-2.385.855-.609.502-1.045 1.186-1.379 2.041h-.065l.032.026-.011.001zm-9.997-3.004c-1.645 0-3.108.343-4.352 1.036a7.036 7.036 0 00-2.874 2.952c-.648 1.256-.985 2.726-.985 4.364 0 1.438.327 2.751.959 3.914a6.77 6.77 0 002.68 2.706c1.132.626 2.448.946 3.903.946 1.699 0 3.147-.337 4.313-1.01l.051-.026v-3.28l-.155.108a6.558 6.558 0 01-1.748.913c-.632.22-1.207.332-1.71.332-1.406 0-2.53-.44-3.348-1.302-.829-.88-1.244-2.098-1.244-3.626 0-1.554.441-2.797 1.29-3.703.855-.933 1.979-1.399 3.354-1.399 1.166 0 2.314.402 3.397 1.179l.155.103v-3.444l-.042-.026c-.408-.233-.963-.415-1.658-.562a9.768 9.768 0 00-1.992-.213l.006.038zm-10.663.325h-3.569v15.203h3.574V16.073h-.005zm-1.761-6.462c-.588 0-1.101.2-1.523.596a1.971 1.971 0 00-.638 1.489c0 .583.217 1.075.635 1.463.414.389.932.58 1.528.58s1.114-.194 1.535-.582a1.91 1.91 0 00.639-1.464c0-.57-.207-1.062-.621-1.476-.415-.389-.933-.596-1.554-.596l-.001-.01zm-8.922 5.358v16.317h3.652V10.102h-5.05l-6.401 15.744-6.229-15.747h-5.25v21.202h3.432V14.99h.116l6.579 16.313h2.583l6.475-16.312h.123l-.019-.008-.011-.014zm-46.71 6.592h16.809v16.823h-16.835l.024-16.811.002-.012zm-18.566.01h16.806v16.813H245l.005-16.811v-.002zm18.568-18.566h16.809v16.81h-16.82L263.573 3v.005zm-18.568-.002h16.806v16.811H245L245.005 3v.003zM478.566 15.274l.013.005c.172.088.327.208.456.352.01.009.014.013.019.015h.014c.01 0 .02-.001.03-.005l3.474-1.48-3.34-3.346-.713 4.36a.103.103 0 00.026.087c.006.006.014.009.021.012zM483.424 15.013l-3.667 1.555-.011.004c-.034.014-.075.03-.075.066 0 .034.039.05.073.064l.015.006 8.536 3.62a1.833 1.833 0 00-.05-.193c-.135-.428-.504-.797-1.239-1.534l-3.582-3.588zM487.003 22.787c.605-.607.962-.965 1.146-1.311l-8.894-3.767c-.03-.013-.065-.027-.094-.013a.055.055 0 00-.019.017 1.594 1.594 0 01-1.075.621c-.042 0-.05.054-.056.1l-.003.02-.98 6.023c-.002.004-.002.008-.002.013-.006.03-.012.064.01.085.345.267.563.666.603 1.1 0 .042.049.05.095.058l.028.005 5.208 1.087 4.033-4.038zM475.422 34.384l6.622-6.632-4.664-.958a.082.082 0 00-.027 0c-.034.004-.06.029-.082.055a1.71 1.71 0 01-.641.477l-.011.005c-.023.009-.047.018-.056.04a.118.118 0 00-.006.027l-.002.009-1.133 6.977zM473.274 36.535l.746-.748 1.369-8.364a.207.207 0 01.014-.041c.012-.03.023-.06-.003-.072a1.619 1.619 0 01-.947-1.084c-.003-.015-.006-.028-.018-.04a.146.146 0 00-.07-.03l-9.142-1.889c-.021-.004-.048-.008-.067.001-.022.012-.034.032-.046.053l-.001.003-.003.002-.019.033c-.023.04-.044.076-.069.113l-.009.012c-.01.011-.02.024-.02.04-.003.018.009.035.022.052l.002.002.009.014 8.252 11.943zM472.461 37.348zM471.22 38.298c.367-.116.691-.405 1.241-.95l-8.292-12.05a.187.187 0 00-.026-.03c-.02-.018-.044-.011-.069-.002-.479.2-1.013.227-1.51.077-.027-.01-.061-.017-.084 0a.142.142 0 00-.036.043l-2.165 3.362 8.287 8.299c.742.744 1.113 1.115 1.543 1.251a1.84 1.84 0 001.111 0zM457.579 26.044l1.901 1.904 2.074-3.224c.011-.015.019-.03.008-.046l-.012-.015a2.851 2.851 0 01-.12-.17c-.017-.028-.035-.06-.066-.06a.08.08 0 00-.031.007l-3.754 1.604zM454.332 22.793l2.406 2.409 3.996-1.696.021-.01c.046-.017.101-.038.101-.084 0-.042-.05-.05-.095-.058a.544.544 0 01-.028-.005l-7.313-1.519c.207.256.503.553.912.963zM453 20.592zM453.083 20.135a1.822 1.822 0 00-.083.457l8.247 1.731h.003c.013.003.026.005.037-.002a.145.145 0 00.046-.057c.095-.176.23-.339.364-.487.029-.028.001-.065-.024-.098a1954.348 1954.348 0 01-4.263-6.17l-3.078 3.081c-.742.744-1.113 1.115-1.249 1.545zM462.371 10.539l-4.137 4.144 4.43 6.472a.196.196 0 00.041.047c.014.01.029.008.046.005h.004c.166-.03.331-.059.482-.059.169.003.337.026.5.069.026.006.058.013.08-.001a.13.13 0 00.039-.046l4.202-6.518.013-.02c.024-.034.052-.073.024-.101a1.85 1.85 0 01-.482-1.687c.004-.018.008-.039 0-.055-.012-.028-.037-.04-.064-.05-.224-.098-.847-.362-1.589-.676l-.518-.22-.154-.065a467.471 467.471 0 01-2.917-1.24zM463.208 9.702zM468.566 4.336l-5.358 5.366.916.388c1.343.569 3.631 1.538 4.006 1.702.031.014.068.028.093.003.498-.4 1.16-.527 1.77-.342.027.01.059.016.082 0a.133.133 0 00.038-.044l3.811-5.91-1.161-1.163c-.742-.743-1.114-1.114-1.543-1.25a1.84 1.84 0 00-1.111 0c-.43.136-.801.507-1.543 1.25zM478.251 9.833l-3.518-3.524-3.747 5.817c-.022.042.004.085.03.126l.002.004c.157.257.254.545.286.845 0 .034.04.051.074.065l.011.005 5.361 2.28a.103.103 0 00.039.007c.017-.002.027-.012.037-.023a1.674 1.674 0 01.524-.268l.005-.001c.017-.005.033-.01.041-.026a.106.106 0 00.007-.035v-.014l.848-5.258zM476.135 16.383l-5.026-2.132c-.028-.013-.065-.022-.09-.004a.148.148 0 00-.031.037c-.35.523-.931.828-1.558.828-.08 0-.16-.01-.25-.023l-.01-.002-.042-.006c-.044 0-.072.043-.096.082l-.007.01-4.13 6.405-.013.019c-.025.035-.053.074-.025.101.016.016.032.016.048.016s10.397-4.433 11.193-4.774l.011-.003c.033-.014.069-.03.069-.064v-.141c0-.085.013-.17.027-.243a.094.094 0 000-.053c-.011-.026-.037-.038-.063-.05l-.007-.003zM476.67 17.895l-11.316 4.832c.005 0 .042.128.079.252.034.116.066.227.071.228l9.024 1.864c.02.005.045.009.065 0 .021-.011.033-.031.045-.052l.005-.009a1.594 1.594 0 011.266-.781c.042 0 .049-.05.055-.096l.001-.003.003-.024.97-5.963c.002-.009.002-.014.002-.023-.002-.024-.025-.039-.048-.052l-.025-.016a1.534 1.534 0 01-.165-.142c-.016-.015-.032-.015-.032-.015zM497.938 17.114l-.086-1.548h-2.824v13.399h2.998V19.43c.591-1.098 1.492-1.647 2.702-1.647.83 0 1.429.204 1.795.613.366.41.549 1.038.549 1.889v8.68h2.996v-8.854c-.049-3.195-1.464-4.793-4.243-4.793-1.604 0-2.9.599-3.887 1.796z" fill="#F9F4DA"/><path fill-rule="evenodd" clip-rule="evenodd" d="M510.381 27.412c1.18 1.2 2.72 1.8 4.62 1.8 1.11 0 2.111-.22 3.004-.661a5.41 5.41 0 002.14-1.864l-1.616-1.548c-.864 1.115-1.982 1.672-3.355 1.672-.979 0-1.791-.322-2.437-.966-.646-.644-1.013-1.519-1.104-2.625h8.722v-1.214c0-2.13-.495-3.776-1.487-4.94-.99-1.165-2.395-1.746-4.212-1.746-1.144 0-2.18.293-3.109.878-.93.587-1.652 1.406-2.165 2.459-.515 1.052-.771 2.247-.771 3.585v.37c0 1.999.59 3.599 1.77 4.8zm2.27-8.811c.506-.578 1.169-.867 1.992-.867.831 0 1.48.258 1.95.774.468.516.735 1.277.802 2.285v.223h-5.712c.139-1.032.462-1.837.968-2.415z" fill="#F9F4DA"/><path d="M526.437 15.567V12.31h-2.999v3.256h-2.196v2.229h2.197v7.591c0 2.551 1.152 3.826 3.454 3.826.634 0 1.292-.094 1.974-.284v-2.329a4.597 4.597 0 01-1.048.124c-.518 0-.879-.113-1.08-.34-.201-.227-.302-.597-.302-1.108v-7.48h2.356v-2.228h-2.356zM531.273 28.966h2.998V9.946h-2.998v19.02zM537.725 28.966h2.998v-13.4h-2.998v13.4zM537.978 10.936c-.292.305-.438.69-.438 1.15 0 .454.146.833.438 1.134.292.302.709.452 1.252.452s.962-.15 1.259-.452c.295-.301.443-.679.443-1.133 0-.462-.148-.846-.443-1.151-.297-.305-.716-.458-1.259-.458-.543 0-.96.153-1.252.458zM545.041 17.795v11.17h2.997v-11.17h2.714v-2.229h-2.714v-1.188c0-1.478.716-2.217 2.147-2.217.385-.004.769.029 1.148.099l.073-2.353a6.898 6.898 0 00-1.678-.222c-1.48 0-2.631.404-3.454 1.213-.822.809-1.233 1.956-1.233 3.442v1.226h-2.036v2.229h2.036zM560.325 15.567l-2.713 9.09-2.826-9.09h-3.232l4.688 13.337-.431 1.151c-.223.653-.525 1.117-.907 1.393-.383.277-.952.415-1.709.415l-.567-.037v2.328a5.344 5.344 0 001.443.223c1.949 0 3.331-1.127 4.146-3.38l5.304-15.43h-3.196zM626.038 22.932V8.627c0-.418.213-.627.641-.627h4.896v15.167c0 7.988-5.217 10.781-12.787 10.781-7.571 0-12.788-2.793-12.788-10.781V8.627c0-.418.214-.627.642-.627h4.896v14.932c0 4.777 2.167 6.76 7.25 6.76 5.082 0 7.25-1.983 7.25-6.76zM697.728 11.733c-.133.287-.321.418-.722.418h-14.9v6.396h12.439c.214 0 .294.103.214.313l-1.364 3.289c-.134.287-.321.417-.722.417h-7.304c-2.381 0-3.263.705-3.263 2.271v4.517h16.826c.215 0 .295.104.215.313l-1.419 3.42c-.133.287-.321.417-.722.417h-18.378c-1.419 0-1.953-.47-1.953-1.514V9.775c0-1.227.695-1.775 2.541-1.775h19.716c.215 0 .295.105.215.313l-1.419 3.42z" fill="#F9F4DA"/><path fill-rule="evenodd" clip-rule="evenodd" d="M662.298 20.06c2.14-1.096 3.022-3.158 3.022-5.586 0-5.639-4.708-6.474-9.577-6.474h-11.129c-1.846 0-2.541.548-2.541 1.775V31.99c0 1.045.535 1.515 1.953 1.515h13.697c5.163 0 8.855-1.958 8.855-7.049 0-3.054-1.338-5.639-4.28-6.396zm-5.137 9.346h-9.66v-4.673c0-1.566.883-2.27 3.264-2.27h6.396c3.077 0 3.933 1.148 3.933 3.497 0 2.35-.856 3.446-3.933 3.446zm-9.66-17.308h8.644c2.889 0 3.691 1.062 3.691 3.263 0 2.202-.802 3.264-3.691 3.264h-8.644v-6.527zM727.461 23.245l5.859 9.816c.107.156.107.444-.241.444h-4.976c-.401 0-.562-.157-.722-.418l-5.297-9.294h-4.815c-2.382 0-3.264.705-3.264 2.272v7.44h-4.789c-.428 0-.642-.21-.642-.627V9.775c0-1.227.696-1.775 2.542-1.775h11.182c6.5 0 10.433 1.671 10.433 7.858 0 4.777-2.354 6.657-5.27 7.387zm-13.456-3.42h9.096c3.397 0 4.146-1.252 4.146-3.863 0-2.584-.749-3.863-4.146-3.863h-9.096v7.726z" fill="#F9F4DA"/><path d="M793.014 10.904l3.649-4.461c4.572.249 8.831 1.338 12.708 3.118l-.217-.09a11.127 11.127 0 01-4.688 3.568l-.075.027c-.216-2.122-1.702-2.64-6.42-2.64l-4.955 27.958-4.985-27.963c-4.689 0-6.175.522-6.392 2.642a11.106 11.106 0 01-4.741-3.552l-.02-.025c3.658-1.693 7.916-2.785 12.399-3.033l.09-.004 3.649 4.455h-.002zm0-5.75c.158-.003.344-.003.53-.003a40.396 40.396 0 0116.43 3.468l-.258-.102c.35-.58.683-1.257.959-1.962l.032-.093c-5.236-2.157-11.31-3.425-17.678-3.462h-.015A48.102 48.102 0 00775 6.58l.321-.117a17.04 17.04 0 001.037 2.15l-.046-.085c4.774-2.135 10.346-3.378 16.21-3.378.174 0 .346.001.519.003h-.027v.001zM863.708 21.602v-.788c-2.627 0-5.401.562-5.401 3.66 0 1.569.813 2.631 2.207 2.631 1.023 0 1.937-.628 2.514-1.65.716-1.256.68-2.438.68-3.853zm3.665 8.856a.761.761 0 01-.859.088c-1.206-1.002-1.42-1.468-2.085-2.423-1.993 2.035-3.405 2.643-5.99 2.643-3.057 0-5.439-1.887-5.439-5.663 0-2.95 1.601-4.958 3.876-5.94 1.973-.868 4.727-1.022 6.832-1.262v-.47c0-.865.067-1.887-.439-2.633-.445-.669-1.293-.946-2.04-.946-1.384 0-2.622.712-2.922 2.184-.063.327-.303.649-.63.665l-3.527-.379c-.296-.066-.624-.308-.542-.762.813-4.273 4.673-5.56 8.128-5.56 1.768 0 4.078.47 5.474 1.81 1.768 1.649 1.599 3.851 1.599 6.25v5.663c0 1.702.706 2.448 1.37 3.369.235.325.286.719-.01.965-.741.618-2.059 1.768-2.786 2.411h-.009l-.001-.01zm43.976-8.856v-.788c-2.633 0-5.408.562-5.408 3.66 0 1.569.817 2.631 2.213 2.631 1.018 0 1.938-.628 2.515-1.65.716-1.256.68-2.438.68-3.853zm3.664 8.856a.76.76 0 01-.858.088c-1.207-1.002-1.427-1.468-2.086-2.423-1.993 2.035-3.408 2.643-5.989 2.643-3.063 0-5.439-1.887-5.439-5.663 0-2.95 1.594-4.958 3.873-5.94 1.973-.868 4.728-1.022 6.835-1.262v-.47c0-.865.067-1.887-.446-2.633-.439-.669-1.287-.946-2.039-.946-1.384 0-2.616.712-2.919 2.184-.06.327-.3.649-.633.665l-3.521-.379c-.296-.066-.63-.308-.542-.762.807-4.273 4.671-5.56 8.128-5.56 1.768 0 4.078.47 5.472 1.81 1.77 1.649 1.6 3.851 1.6 6.25v5.663c0 1.702.706 2.448 1.371 3.369.23.325.281.719-.02.965-.74.618-2.06 1.768-2.785 2.411l-.002-.01zm44.753.051h-3.618a.689.689 0 01-.655-.674V11.18c.031-.342.333-.609.702-.609h3.367c.317.02.579.23.649.523v2.852h.066c1.018-2.552 2.443-3.769 4.954-3.769 1.63 0 3.218.59 4.242 2.2.949 1.49.949 4 .949 5.805v11.74c-.041.328-.341.587-.699.587h-3.644c-.332-.025-.608-.27-.644-.587v-10.13c0-2.039.234-5.023-2.275-5.023-.885 0-1.696.592-2.101 1.491-.511 1.14-.577 2.275-.577 3.532v10.043c0 .374-.322.674-.71.674h-.006zm-15.303-20.332c5.392 0 8.31 4.633 8.31 10.52 0 5.689-3.224 10.202-8.31 10.202-5.295 0-8.177-4.632-8.177-10.4 0-5.808 2.919-10.322 8.177-10.322zm.031 3.81c-2.679 0-2.847 3.647-2.847 5.923 0 2.279-.035 7.145 2.816 7.145 2.817 0 2.949-3.925 2.949-6.317 0-1.575-.066-3.454-.542-4.948-.407-1.298-1.22-1.803-2.376-1.803zm-67.195 16.522h-3.634a.685.685 0 01-.649-.618v-18.65c0-.373.312-.67.7-.67h3.388c.353.02.634.287.659.624v2.439h.066c.885-2.357 2.546-3.457 4.784-3.457 2.276 0 3.697 1.1 4.718 3.457.88-2.357 2.878-3.457 5.02-3.457 1.523 0 3.19.63 4.206 2.04 1.15 1.569.916 3.85.916 5.848v11.77a.686.686 0 01-.702.674h-3.628c-.363-.025-.655-.316-.655-.674V19.95c0-.787.072-2.748-.101-3.495-.271-1.254-1.084-1.605-2.137-1.605-.879 0-1.8.587-2.172 1.527-.372.942-.337 2.515-.337 3.573v9.885a.686.686 0 01-.7.674h-3.628a.686.686 0 01-.655-.674V19.95c0-2.08.341-5.14-2.24-5.14-2.611 0-2.509 2.984-2.509 5.14v9.885a.686.686 0 01-.7.674h-.01zm43.572-16.645v-2.669c0-.404.306-.675.675-.675h11.945c.382 0 .69.277.69.675v2.285c0 .384-.328.885-.901 1.676l-6.19 8.838c2.301-.057 4.728.286 6.814 1.462.47.265.598.653.633 1.037v2.846c0 .388-.428.845-.879.609-3.675-1.927-8.556-2.137-12.619.021-.413.224-.848-.226-.848-.614v-2.704c0-.435 0-1.176.44-1.834l7.171-10.284h-6.241c-.384 0-.69-.271-.69-.669zm7.81 20.562c-.869-1.115-5.767-.527-7.964-.267-.668.082-.772-.501-.167-.92 3.899-2.743 10.297-1.952 11.044-1.032.746.924-.195 7.34-3.858 10.401-.564.47-1.1.22-.85-.404.824-2.054 2.668-6.66 1.795-7.778zm-2.837 3.244c1.129-.839.164-2.084-.992-1.595-7.646 3.246-15.961 4.81-23.521 4.81-11.208 0-22.059-3.07-30.835-8.177-.767-.45-1.339.337-.7.915 8.131 7.344 18.881 11.761 30.82 11.761 8.515 0 18.405-2.684 25.228-7.714zM1031 1c-10.49 0-19 8.507-19 19 0 10.494 8.51 19 19 19s19-8.506 19-19c0-10.493-8.51-19-19-19zm8.71 27.403c-.34.56-1.07.735-1.63.394-4.46-2.727-10.07-3.343-16.69-1.832a1.177 1.177 0 01-1.41-.89c-.15-.638.25-1.273.89-1.418 7.23-1.655 13.44-.943 18.45 2.117.56.343.74 1.071.39 1.63v-.001zm2.33-5.173c-.43.697-1.34.916-2.04.488-5.1-3.139-12.89-4.048-18.93-2.214a1.483 1.483 0 01-1.85-.987c-.24-.784.21-1.61.99-1.848 6.9-2.093 15.48-1.08 21.34 2.525.7.429.92 1.34.49 2.037zm.2-5.387c-6.13-3.637-16.23-3.972-22.07-2.197a1.779 1.779 0 01-2.22-1.184 1.77 1.77 0 011.18-2.217c6.71-2.037 17.87-1.644 24.92 2.542.85.5 1.12 1.591.62 2.435a1.771 1.771 0 01-2.43.621zm21.45.697c-3.28-.782-3.86-1.331-3.86-2.485 0-1.09 1.02-1.823 2.55-1.823 1.48 0 2.95.557 4.48 1.703.05.035.11.049.17.04.05-.009.1-.04.14-.088l1.6-2.258a.21.21 0 00-.04-.292c-1.83-1.469-3.89-2.183-6.3-2.183-3.54 0-6.02 2.126-6.02 5.167 0 3.262 2.14 4.417 5.82 5.308 3.14.723 3.67 1.329 3.67 2.412 0 1.2-1.07 1.946-2.79 1.946-1.92 0-3.48-.645-5.23-2.158a.208.208 0 00-.15-.052.221.221 0 00-.15.076l-1.8 2.138a.226.226 0 00.02.298c2.04 1.814 4.54 2.773 7.24 2.773 3.81 0 6.28-2.085 6.28-5.313.01-2.725-1.63-4.234-5.62-5.206l-.01-.003zm14.26-3.235c-1.65 0-3.01.651-4.13 1.987v-1.503a.21.21 0 00-.21-.216h-2.94a.21.21 0 00-.21.216v16.699c0 .118.09.215.21.215h2.94a.21.21 0 00.21-.215v-5.271c1.12 1.256 2.48 1.87 4.13 1.87 3.08 0 6.19-2.367 6.19-6.89 0-4.525-3.11-6.892-6.18-6.892h-.01zm2.77 6.891c0 2.304-1.41 3.911-3.45 3.911-2 0-3.52-1.68-3.52-3.91 0-2.23 1.52-3.912 3.52-3.912s3.45 1.645 3.45 3.911zm11.4-6.891c-3.96 0-7.06 3.048-7.06 6.94 0 3.85 3.08 6.867 7.01 6.867 3.97 0 7.08-3.038 7.08-6.916 0-3.864-3.09-6.89-7.03-6.89v-.001zm0 10.825c-2.11 0-3.7-1.692-3.7-3.935 0-2.253 1.54-3.887 3.65-3.887 2.12 0 3.72 1.692 3.72 3.936 0 2.253-1.55 3.886-3.67 3.886zm15.49-10.557h-3.24V12.27a.21.21 0 00-.21-.216h-2.94a.21.21 0 00-.21.216v3.304h-1.42c-.11 0-.21.097-.21.216v2.524c0 .119.1.216.21.216h1.42v6.532c0 2.64 1.31 3.978 3.9 3.978 1.06 0 1.93-.218 2.75-.685a.21.21 0 00.11-.186v-2.404a.221.221 0 00-.1-.183.215.215 0 00-.21-.01c-.57.285-1.11.416-1.72.416-.95 0-1.37-.428-1.37-1.387v-6.07h3.24c.11 0 .21-.097.21-.216V15.79a.21.21 0 00-.21-.215v-.002zm11.26.013v-.406c0-1.194.46-1.726 1.48-1.726.62 0 1.11.121 1.66.305.07.022.14.01.19-.03.06-.04.09-.105.09-.174v-2.476a.215.215 0 00-.15-.206 8.068 8.068 0 00-2.44-.35c-2.72 0-4.15 1.527-4.15 4.416v.622h-1.41c-.12 0-.22.096-.22.215v2.537c0 .119.1.216.22.216h1.41v10.075c0 .119.1.216.21.216h2.94c.12 0 .22-.097.22-.216V18.53h2.74l4.2 10.073c-.48 1.059-.95 1.27-1.59 1.27-.51 0-1.06-.155-1.62-.46a.215.215 0 00-.17-.016c-.05.02-.1.061-.12.116l-1 2.184a.21.21 0 00.09.278c1.04.563 1.98.803 3.14.803 2.17 0 3.37-1.01 4.43-3.728l5.09-13.169a.204.204 0 00-.02-.2.221.221 0 00-.18-.093h-3.06c-.09 0-.17.058-.2.144l-3.13 8.948-3.43-8.954a.211.211 0 00-.2-.138h-5.02zm-6.53-.013h-2.94a.21.21 0 00-.21.216v12.815c0 .119.09.216.21.216h2.94a.21.21 0 00.21-.216V15.79c0-.029 0-.057-.01-.083a.212.212 0 00-.05-.07.18.18 0 00-.07-.046.21.21 0 00-.08-.017zm-1.45-5.835c-1.17 0-2.11.942-2.11 2.106a2.106 2.106 0 104.21 0c0-1.164-.94-2.106-2.1-2.106zm25.73 9.956c-1.16 0-2.07-.934-2.07-2.068a2.08 2.08 0 012.08-2.078c1.16 0 2.07.934 2.07 2.067s-.92 2.079-2.08 2.079zm.01-3.94c-1.06 0-1.86.842-1.86 1.872 0 1.03.8 1.861 1.85 1.861 1.06 0 1.86-.84 1.86-1.872 0-1.03-.8-1.861-1.85-1.861zm.46 2.073l.58.819h-.49l-.53-.751h-.45v.75h-.41v-2.17h.97c.5 0 .83.259.83.693 0 .356-.2.573-.5.66zm-.35-.979h-.54v.687h.54c.27 0 .43-.132.43-.344 0-.223-.16-.343-.43-.343z" fill="#F9F4DA"/></svg>